<?xml version="1.0" encoding="utf-8"?>
<!-- Generator: Adobe Illustrator 21.0.0, SVG Export Plug-In . SVG Version: 6.00 Build 0)  -->
<svg version="1.1" id="Layer_1" xmlns="http://www.w3.org/2000/svg" xmlns:xlink="http://www.w3.org/1999/xlink" x="0px" y="0px"
	 viewBox="0 0 30 30" style="enable-background:new 0 0 30 30;" xml:space="preserve">
<style type="text/css">
	.st0{fill:#515262;}
	.st1{fill:#464655;}
</style>
<g>
	<path class="st0" d="M15.5,0.2c-0.3-0.2-0.8-0.2-1.1,0C11.9,1.7,1,8.8,1,17c0,4.2,3.4,7.7,7.7,7.7c1.4,0,2.7-0.4,3.8-1
		c0.3-0.2,0.7,0.1,0.6,0.5c-0.6,1.7-1.4,3.2-2.5,4.6c-0.4,0.5,0,1.3,0.6,1.3h7.7c0.7,0,1-0.8,0.6-1.3c-1-1.4-1.9-2.9-2.5-4.5
		c-0.1-0.3,0.2-0.7,0.6-0.5c1.1,0.6,2.4,1,3.7,1c4.2,0,7.7-3.4,7.7-7.7C29,8.8,18.1,1.7,15.5,0.2z"/>
	<g>
		<path class="st1" d="M11.8,24c-8.6-4.8-0.5-19.1,3.2-24c-0.2,0-0.4,0-0.6,0.1C11.9,1.7,1,8.8,1,17c0,4.2,3.4,7.7,7.7,7.7
			C9.8,24.6,10.9,24.4,11.8,24z"/>
		<path class="st1" d="M13.6,28.9c0.5-4.1,0.5-5.3-0.8-5.3c0.2,0,0.4,0.3,0.3,0.5c-0.6,1.7-1.4,3.2-2.5,4.6c-0.4,0.5,0,1.3,0.6,1.3
			h2.9C13.5,30,13.5,29.3,13.6,28.9z"/>
	</g>
</g>
</svg>
