<?xml version="1.0" encoding="utf-8"?>
<!-- Generator: Adobe Illustrator 21.0.0, SVG Export Plug-In . SVG Version: 6.00 Build 0)  -->
<svg version="1.1" id="Layer_1" xmlns="http://www.w3.org/2000/svg" xmlns:xlink="http://www.w3.org/1999/xlink" x="0px" y="0px"
	 viewBox="0 0 30 30" style="enable-background:new 0 0 30 30;" xml:space="preserve">
<style type="text/css">
	.st0{fill:#FF6464;}
	.st1{fill:#D2555A;}
</style>
<g>
	<g>
		<path class="st0" d="M15.8,0.4c3.6,4.7,9.1,10.1,13.7,13.7c0.6,0.4,0.6,1.3,0,1.7c-4.7,3.6-10.1,9.1-13.7,13.7
			c-0.4,0.6-1.3,0.6-1.7,0c-3.6-4.7-9.1-10.1-13.7-13.7c-0.6-0.4-0.6-1.3,0-1.7c4.7-3.6,10.1-9.1,13.7-13.7
			C14.6-0.1,15.4-0.1,15.8,0.4z"/>
	</g>
	<path class="st1" d="M14.9,29.6c-1.7-4.7-4.2-10.1-6.3-13.7c-0.3-0.4-0.3-1.3,0-1.7c2.1-3.6,4.7-9.1,6.3-13.7
		C15,0.2,15.1,0.1,15.3,0c-0.4-0.1-0.8,0-1.1,0.4C10.6,5.1,5.1,10.6,0.4,14.2c-0.6,0.4-0.6,1.3,0,1.7c4.7,3.6,10.1,9.1,13.7,13.7
		c0.3,0.4,0.7,0.5,1.1,0.4C15.1,29.9,15,29.8,14.9,29.6z"/>
</g>
</svg>
