<?xml version="1.0" encoding="utf-8"?>
<!-- Generator: Adobe Illustrator 21.0.0, SVG Export Plug-In . SVG Version: 6.00 Build 0)  -->
<svg version="1.1" id="Layer_1" xmlns="http://www.w3.org/2000/svg" xmlns:xlink="http://www.w3.org/1999/xlink" x="0px" y="0px"
	 viewBox="0 0 30 30" style="enable-background:new 0 0 30 30;" xml:space="preserve">
<style type="text/css">
	.st0{fill:#515262;}
	.st1{fill:#464655;}
</style>
<g>
	<path class="st0" d="M24.1,12.1c-2.6-0.1-4.9,1.3-6,3.4c-0.2,0.5-0.6,0.8-1.1,1c0,0,0,0,0,0c-0.4,0.1-0.9-0.2-0.8-0.7
		c0.1-1,0.4-1.9,0.7-2.8c0.2-0.5,0.5-0.9,1-1.1c2.1-1.1,3.6-3.4,3.4-6c-0.2-3.2-2.8-5.8-6-5.9c-3.6-0.1-6.6,2.7-6.6,6.3
		c0,2.5,1.4,4.6,3.5,5.6c0.5,0.2,0.8,0.6,1,1.1c0.3,0.9,0.5,1.9,0.7,2.9c0.1,0.4-0.4,0.8-0.8,0.7c0,0,0,0,0,0
		c-0.5-0.2-0.9-0.5-1.1-1c-1.1-2.1-3.4-3.6-6-3.4c-3.2,0.2-5.8,2.8-5.9,6c-0.1,3.6,2.7,6.6,6.3,6.6c2.4,0,4.6-1.4,5.6-3.4
		c0.2-0.5,0.6-0.8,1.2-1c0,0,0,0,0,0c0.4-0.1,0.9,0.2,0.8,0.7c-0.4,3-1.7,5.7-3.5,8c-0.4,0.5,0,1.1,0.6,1.1h8.1
		c0.6,0,0.9-0.7,0.6-1.1c-1.8-2.3-3-5-3.5-8c-0.1-0.4,0.4-0.8,0.8-0.7c0,0,0,0,0,0c0.5,0.2,0.9,0.5,1.2,1c1,2,3.2,3.4,5.6,3.4
		c3.6,0,6.4-3,6.3-6.6C29.9,14.9,27.3,12.3,24.1,12.1z"/>
	<g>
		<path class="st1" d="M4.1,18.1c0.1-2.6,1.9-4.8,4.2-5.7c-0.8-0.3-1.6-0.4-2.4-0.3c-3.2,0.2-5.8,2.8-5.9,6
			c-0.1,3.6,2.7,6.6,6.3,6.6c0.7,0,1.4-0.1,2.1-0.4C5.8,23.4,4,21,4.1,18.1z"/>
		<path class="st1" d="M13.6,10.4c-0.3-1-0.8-3-0.8-4.1c0-3.1,1.8-5.1,4.2-5.9C16.5,0.2,15.9,0,15.3,0c-3.6-0.1-6.6,2.7-6.6,6.3
			c0,2.3,1.3,4.4,3.2,5.5l0,0c0.1,0,0.2,0.1,0.3,0.1c0.5,0.2,0.8,0.6,1,1.1c0.3,0.9,0.5,1.9,0.7,2.9c0.1,0.4-0.3,0.7-0.6,0.7l0,0
			c0.1,0.1,1.1,0.2,1.2-0.5C14.7,15.5,14.4,13,13.6,10.4z"/>
		<path class="st1" d="M24.1,12.1c-2.6-0.1-4.9,1.3-6,3.4c-0.2,0.5-0.6,0.8-1.1,1c0,0-0.1,0-0.2,0l0,0c0,0,2.3,0.3,4.2-2.2
			c1.1-1.5,2.3-2.1,3.8-2.2C24.6,12.2,24.3,12.1,24.1,12.1z"/>
		<path class="st1" d="M24.1,24.7c-2.6,0.1-4.9-1.3-6-3.4c-0.2-0.5-0.6-0.8-1.1-1c0,0-0.1,0-0.2,0l0,0c0,0,2.3-0.3,4.2,2.2
			c1.1,1.5,2.3,2.1,3.8,2.2C24.6,24.6,24.3,24.7,24.1,24.7z"/>
		<path class="st1" d="M13.4,28.9c0.8-2,1.6-7.6,0.2-8.5c0,0,0.2,0.3,0.2,0.5c-0.4,3-1.7,5.7-3.5,8c-0.4,0.5,0,1.1,0.6,1.1H14
			C13.4,30,13.2,29.4,13.4,28.9z"/>
	</g>
</g>
</svg>
