<?xml version="1.0" encoding="utf-8"?>
<!-- Generator: Adobe Illustrator 21.0.0, SVG Export Plug-In . SVG Version: 6.00 Build 0)  -->
<svg version="1.1" id="Layer_1" xmlns="http://www.w3.org/2000/svg" xmlns:xlink="http://www.w3.org/1999/xlink" x="0px" y="0px"
	 viewBox="0 0 30 30" style="enable-background:new 0 0 30 30;" xml:space="preserve">
<style type="text/css">
	.st0{fill:#FF6464;}
	.st1{fill:#D2555A;}
</style>
<g>
	<path class="st0" d="M0,9.9c0-4.6,3.7-8.3,8.2-8.3c2.3,0,4.3,0.9,5.8,2.4c0.6,0.5,1.4,0.5,2,0c1.5-1.5,3.5-2.4,5.8-2.4
		c4.5,0,8.2,3.7,8.2,8.3l0,0c0,8.5-11,16.3-14.2,18.4c-0.5,0.3-1.2,0.3-1.7,0C11,26.2,0,18.5,0,9.9"/>
	<path class="st1" d="M11.6,2.4c-1-0.5-2.2-0.7-3.3-0.7C3.7,1.7,0,5.4,0,9.9c0,8.5,11,16.3,14.2,18.4c0.3,0.2,0.5,0.2,0.8,0.2
		C3.8,13.2,7.8,4.6,11.6,2.4z"/>
</g>
</svg>
